<mxfile host="app.diagrams.net" agent="Mozilla/5.0 (Macintosh; Intel Mac OS X 10_15_7) AppleWebKit/537.36 (KHTML, like Gecko) Chrome/135.0.0.0 Safari/537.36" version="26.2.14">
  <diagram id="Cedq28v4Ll1XpMTqRwzR" name="Page-1">
    <mxGraphModel dx="1234" dy="739" grid="0" gridSize="10" guides="1" tooltips="1" connect="1" arrows="1" fold="1" page="0" pageScale="1" pageWidth="827" pageHeight="1169" math="0" shadow="0">
      <root>
        <mxCell id="0" />
        <mxCell id="1" parent="0" />
        <mxCell id="KmrYZ1ML7-czw5vyhhB1-1" value="" style="rounded=1;whiteSpace=wrap;html=1;fontColor=#333333;fillColor=#f0f6ff;strokeColor=#f0f6ff;labelPosition=center;verticalLabelPosition=top;align=center;verticalAlign=bottom;fontStyle=1;fontSize=14;" parent="1" vertex="1">
          <mxGeometry x="168" y="245" width="668" height="1361" as="geometry" />
        </mxCell>
        <mxCell id="bJ7v0S9oUuR_FjYUKAjI-7" value="" style="edgeStyle=orthogonalEdgeStyle;rounded=1;orthogonalLoop=1;jettySize=auto;html=1;fontSize=12;strokeColor=#666666;" parent="1" source="bJ7v0S9oUuR_FjYUKAjI-1" target="bJ7v0S9oUuR_FjYUKAjI-5" edge="1">
          <mxGeometry relative="1" as="geometry" />
        </mxCell>
        <mxCell id="bJ7v0S9oUuR_FjYUKAjI-1" value="BtpOperator CR" style="ellipse;whiteSpace=wrap;html=1;align=center;fillColor=#FFFFFF;strokeColor=#666666;" parent="1" vertex="1">
          <mxGeometry x="320" y="160" width="80" height="80" as="geometry" />
        </mxCell>
        <mxCell id="bJ7v0S9oUuR_FjYUKAjI-2" value="&lt;font style=&quot;font-size: 12px;&quot;&gt;create or reconcile&lt;/font&gt;" style="endArrow=classic;html=1;rounded=1;labelPosition=center;verticalLabelPosition=top;align=center;verticalAlign=bottom;strokeColor=#666666;" parent="1" edge="1">
          <mxGeometry width="50" height="50" relative="1" as="geometry">
            <mxPoint x="170" y="200" as="sourcePoint" />
            <mxPoint x="320" y="199.5" as="targetPoint" />
          </mxGeometry>
        </mxCell>
        <mxCell id="bJ7v0S9oUuR_FjYUKAjI-10" value="" style="edgeStyle=orthogonalEdgeStyle;rounded=1;orthogonalLoop=1;jettySize=auto;html=1;fontSize=12;strokeColor=#666666;" parent="1" source="bJ7v0S9oUuR_FjYUKAjI-4" target="bJ7v0S9oUuR_FjYUKAjI-9" edge="1">
          <mxGeometry relative="1" as="geometry" />
        </mxCell>
        <mxCell id="bJ7v0S9oUuR_FjYUKAjI-14" value="yes" style="edgeLabel;html=1;align=left;verticalAlign=middle;resizable=0;points=[];fontSize=12;labelPosition=right;verticalLabelPosition=middle;" parent="bJ7v0S9oUuR_FjYUKAjI-10" vertex="1" connectable="0">
          <mxGeometry x="-0.25" y="1" relative="1" as="geometry">
            <mxPoint x="-1" as="offset" />
          </mxGeometry>
        </mxCell>
        <mxCell id="bJ7v0S9oUuR_FjYUKAjI-16" value="no" style="edgeStyle=orthogonalEdgeStyle;rounded=1;orthogonalLoop=1;jettySize=auto;html=1;fontSize=12;strokeColor=#666666;verticalAlign=bottom;entryX=0;entryY=0.5;entryDx=0;entryDy=0;" parent="1" source="bJ7v0S9oUuR_FjYUKAjI-4" target="bJ7v0S9oUuR_FjYUKAjI-25" edge="1">
          <mxGeometry relative="1" as="geometry">
            <mxPoint as="offset" />
            <mxPoint x="475" y="460" as="targetPoint" />
          </mxGeometry>
        </mxCell>
        <mxCell id="bJ7v0S9oUuR_FjYUKAjI-4" value="&lt;span style=&quot;font-size: 12px;&quot;&gt;valid name and namespace?&lt;/span&gt;" style="rhombus;whiteSpace=wrap;html=1;fontSize=11;aspect=fixed;strokeColor=#666666;" parent="1" vertex="1">
          <mxGeometry x="305" y="405" width="110" height="110" as="geometry" />
        </mxCell>
        <mxCell id="bJ7v0S9oUuR_FjYUKAjI-8" value="" style="edgeStyle=orthogonalEdgeStyle;rounded=1;orthogonalLoop=1;jettySize=auto;html=1;fontSize=12;strokeColor=#666666;" parent="1" source="bJ7v0S9oUuR_FjYUKAjI-5" target="bJ7v0S9oUuR_FjYUKAjI-4" edge="1">
          <mxGeometry relative="1" as="geometry" />
        </mxCell>
        <mxCell id="bJ7v0S9oUuR_FjYUKAjI-5" value="validate name and namespace" style="rounded=1;whiteSpace=wrap;html=1;fontSize=12;strokeColor=#666666;" parent="1" vertex="1">
          <mxGeometry x="300" y="300" width="120" height="60" as="geometry" />
        </mxCell>
        <mxCell id="bJ7v0S9oUuR_FjYUKAjI-31" value="" style="edgeStyle=orthogonalEdgeStyle;rounded=1;orthogonalLoop=1;jettySize=auto;html=1;fontSize=12;fontColor=#FF0000;strokeColor=#666666;" parent="1" source="bJ7v0S9oUuR_FjYUKAjI-9" target="bJ7v0S9oUuR_FjYUKAjI-30" edge="1">
          <mxGeometry relative="1" as="geometry" />
        </mxCell>
        <mxCell id="bJ7v0S9oUuR_FjYUKAjI-9" value="add finalizer" style="whiteSpace=wrap;html=1;rounded=1;strokeColor=#666666;" parent="1" vertex="1">
          <mxGeometry x="300" y="570" width="120" height="60" as="geometry" />
        </mxCell>
        <mxCell id="bJ7v0S9oUuR_FjYUKAjI-28" style="edgeStyle=orthogonalEdgeStyle;rounded=1;orthogonalLoop=1;jettySize=auto;html=1;exitX=1;exitY=0.5;exitDx=0;exitDy=0;entryX=1;entryY=0.5;entryDx=0;entryDy=0;fontSize=12;strokeColor=#666666;" parent="1" source="bJ7v0S9oUuR_FjYUKAjI-25" target="bJ7v0S9oUuR_FjYUKAjI-1" edge="1">
          <mxGeometry relative="1" as="geometry">
            <Array as="points">
              <mxPoint x="800" y="460" />
              <mxPoint x="800" y="200" />
            </Array>
          </mxGeometry>
        </mxCell>
        <mxCell id="bJ7v0S9oUuR_FjYUKAjI-36" value="&lt;font color=&quot;#ff0000&quot;&gt;warning&lt;/font&gt;" style="edgeLabel;html=1;align=center;verticalAlign=bottom;resizable=0;points=[];fontSize=12;fontColor=#000000;" parent="bJ7v0S9oUuR_FjYUKAjI-28" vertex="1" connectable="0">
          <mxGeometry x="-0.9097" y="2" relative="1" as="geometry">
            <mxPoint x="-6" as="offset" />
          </mxGeometry>
        </mxCell>
        <mxCell id="bJ7v0S9oUuR_FjYUKAjI-25" value="throw wrong namespace or name warning" style="whiteSpace=wrap;html=1;rounded=1;strokeColor=#666666;" parent="1" vertex="1">
          <mxGeometry x="531" y="430" width="120" height="60" as="geometry" />
        </mxCell>
        <mxCell id="bJ7v0S9oUuR_FjYUKAjI-38" value="no" style="edgeStyle=orthogonalEdgeStyle;rounded=0;orthogonalLoop=1;jettySize=auto;html=1;fontSize=12;fontColor=#000000;endArrow=classic;endFill=1;verticalAlign=bottom;" parent="1" source="bJ7v0S9oUuR_FjYUKAjI-30" target="bJ7v0S9oUuR_FjYUKAjI-37" edge="1">
          <mxGeometry relative="1" as="geometry" />
        </mxCell>
        <mxCell id="bJ7v0S9oUuR_FjYUKAjI-42" value="yes" style="edgeStyle=orthogonalEdgeStyle;rounded=1;orthogonalLoop=1;jettySize=auto;html=1;fontSize=12;fontColor=#000000;endArrow=classic;endFill=1;strokeColor=#666666;labelPosition=right;verticalLabelPosition=middle;align=left;verticalAlign=middle;" parent="1" source="bJ7v0S9oUuR_FjYUKAjI-30" target="bJ7v0S9oUuR_FjYUKAjI-41" edge="1">
          <mxGeometry relative="1" as="geometry" />
        </mxCell>
        <mxCell id="Pw5SRzllFQ0d9EV75_ng-1" value="" style="edgeStyle=orthogonalEdgeStyle;rounded=1;orthogonalLoop=1;jettySize=auto;html=1;strokeColor=#666666;" parent="1" source="bJ7v0S9oUuR_FjYUKAjI-30" target="bJ7v0S9oUuR_FjYUKAjI-37" edge="1">
          <mxGeometry relative="1" as="geometry" />
        </mxCell>
        <mxCell id="bJ7v0S9oUuR_FjYUKAjI-30" value="required Secret exists?" style="rhombus;whiteSpace=wrap;html=1;aspect=fixed;fontSize=11;strokeColor=#666666;" parent="1" vertex="1">
          <mxGeometry x="305" y="680" width="110" height="110" as="geometry" />
        </mxCell>
        <mxCell id="bJ7v0S9oUuR_FjYUKAjI-39" value="" style="edgeStyle=orthogonalEdgeStyle;rounded=1;orthogonalLoop=1;jettySize=auto;html=1;fontSize=12;fontColor=#FF0000;endArrow=none;endFill=0;strokeColor=#666666;" parent="1" source="bJ7v0S9oUuR_FjYUKAjI-37" edge="1">
          <mxGeometry relative="1" as="geometry">
            <mxPoint x="800" y="460" as="targetPoint" />
          </mxGeometry>
        </mxCell>
        <mxCell id="bJ7v0S9oUuR_FjYUKAjI-40" value="error" style="edgeLabel;html=1;align=center;verticalAlign=bottom;resizable=0;points=[];fontSize=12;fontColor=#FF0000;" parent="bJ7v0S9oUuR_FjYUKAjI-39" vertex="1" connectable="0">
          <mxGeometry x="-0.5854" y="2" relative="1" as="geometry">
            <mxPoint x="-8" y="2" as="offset" />
          </mxGeometry>
        </mxCell>
        <mxCell id="bJ7v0S9oUuR_FjYUKAjI-37" value="throw missing required Secret error" style="whiteSpace=wrap;html=1;rounded=1;strokeColor=#666666;" parent="1" vertex="1">
          <mxGeometry x="480" y="705" width="120" height="60" as="geometry" />
        </mxCell>
        <mxCell id="bJ7v0S9oUuR_FjYUKAjI-45" value="no" style="edgeStyle=orthogonalEdgeStyle;rounded=1;orthogonalLoop=1;jettySize=auto;html=1;fontSize=12;fontColor=#000000;endArrow=classic;endFill=1;strokeColor=#666666;verticalAlign=bottom;" parent="1" source="bJ7v0S9oUuR_FjYUKAjI-41" target="bJ7v0S9oUuR_FjYUKAjI-44" edge="1">
          <mxGeometry relative="1" as="geometry" />
        </mxCell>
        <mxCell id="bJ7v0S9oUuR_FjYUKAjI-49" value="yes" style="edgeStyle=orthogonalEdgeStyle;rounded=1;orthogonalLoop=1;jettySize=auto;html=1;fontSize=12;fontColor=#000000;endArrow=classic;endFill=1;strokeColor=#666666;labelPosition=right;verticalLabelPosition=middle;align=left;verticalAlign=middle;" parent="1" source="bJ7v0S9oUuR_FjYUKAjI-41" target="bJ7v0S9oUuR_FjYUKAjI-48" edge="1">
          <mxGeometry relative="1" as="geometry" />
        </mxCell>
        <mxCell id="bJ7v0S9oUuR_FjYUKAjI-41" value="&lt;font style=&quot;font-size: 12px;&quot;&gt;Secret is correct?&lt;/font&gt;" style="rhombus;whiteSpace=wrap;html=1;aspect=fixed;fontSize=11;strokeColor=#666666;" parent="1" vertex="1">
          <mxGeometry x="305" y="849" width="110" height="110" as="geometry" />
        </mxCell>
        <mxCell id="bJ7v0S9oUuR_FjYUKAjI-46" value="" style="edgeStyle=orthogonalEdgeStyle;rounded=1;orthogonalLoop=1;jettySize=auto;html=1;fontSize=12;fontColor=#000000;endArrow=none;endFill=0;strokeColor=#666666;" parent="1" source="bJ7v0S9oUuR_FjYUKAjI-44" edge="1">
          <mxGeometry relative="1" as="geometry">
            <mxPoint x="800" y="720" as="targetPoint" />
          </mxGeometry>
        </mxCell>
        <mxCell id="bJ7v0S9oUuR_FjYUKAjI-47" value="error" style="edgeLabel;html=1;align=center;verticalAlign=bottom;resizable=0;points=[];fontSize=12;fontColor=#FF0000;" parent="bJ7v0S9oUuR_FjYUKAjI-46" vertex="1" connectable="0">
          <mxGeometry x="-0.45" y="1" relative="1" as="geometry">
            <mxPoint x="-16" y="1" as="offset" />
          </mxGeometry>
        </mxCell>
        <mxCell id="bJ7v0S9oUuR_FjYUKAjI-44" value="throw missing required keys/values error" style="whiteSpace=wrap;html=1;rounded=1;strokeColor=#666666;" parent="1" vertex="1">
          <mxGeometry x="480" y="874" width="120" height="60" as="geometry" />
        </mxCell>
        <mxCell id="bJ7v0S9oUuR_FjYUKAjI-51" value="" style="edgeStyle=orthogonalEdgeStyle;rounded=1;orthogonalLoop=1;jettySize=auto;html=1;fontSize=12;fontColor=#000000;endArrow=classic;endFill=1;strokeColor=#666666;" parent="1" source="bJ7v0S9oUuR_FjYUKAjI-48" target="bJ7v0S9oUuR_FjYUKAjI-50" edge="1">
          <mxGeometry relative="1" as="geometry" />
        </mxCell>
        <mxCell id="bJ7v0S9oUuR_FjYUKAjI-48" value="delete outdated module resources" style="whiteSpace=wrap;html=1;rounded=1;strokeColor=#666666;" parent="1" vertex="1">
          <mxGeometry x="300" y="1020" width="120" height="60" as="geometry" />
        </mxCell>
        <mxCell id="OnOha_oYimixfrr4uWvl-2" value="" style="edgeStyle=orthogonalEdgeStyle;rounded=1;orthogonalLoop=1;jettySize=auto;html=1;strokeColor=#666666;" parent="1" source="bJ7v0S9oUuR_FjYUKAjI-50" target="OnOha_oYimixfrr4uWvl-1" edge="1">
          <mxGeometry relative="1" as="geometry" />
        </mxCell>
        <mxCell id="bJ7v0S9oUuR_FjYUKAjI-50" value="prepare current module resources (add labels and overrides)" style="whiteSpace=wrap;html=1;rounded=1;strokeColor=#666666;" parent="1" vertex="1">
          <mxGeometry x="300" y="1138" width="120" height="60" as="geometry" />
        </mxCell>
        <mxCell id="bJ7v0S9oUuR_FjYUKAjI-56" value="&lt;font style=&quot;font-size: 12px;&quot;&gt;no&lt;/font&gt;" style="edgeStyle=orthogonalEdgeStyle;rounded=1;orthogonalLoop=1;jettySize=auto;html=1;fontSize=12;fontColor=#000000;endArrow=classic;endFill=1;strokeColor=#666666;verticalAlign=bottom;labelPosition=center;verticalLabelPosition=middle;align=center;" parent="1" source="bJ7v0S9oUuR_FjYUKAjI-52" target="bJ7v0S9oUuR_FjYUKAjI-55" edge="1">
          <mxGeometry relative="1" as="geometry">
            <Array as="points">
              <mxPoint x="445" y="1427" />
              <mxPoint x="445" y="1427" />
            </Array>
          </mxGeometry>
        </mxCell>
        <mxCell id="Pw5SRzllFQ0d9EV75_ng-7" value="" style="edgeStyle=orthogonalEdgeStyle;rounded=1;orthogonalLoop=1;jettySize=auto;html=1;strokeColor=#666666;fontSize=12;" parent="1" source="bJ7v0S9oUuR_FjYUKAjI-52" target="bJ7v0S9oUuR_FjYUKAjI-58" edge="1">
          <mxGeometry relative="1" as="geometry" />
        </mxCell>
        <mxCell id="Pw5SRzllFQ0d9EV75_ng-8" value="&lt;font style=&quot;font-size: 12px;&quot;&gt;yes&lt;/font&gt;" style="edgeLabel;html=1;align=left;verticalAlign=middle;resizable=0;points=[];labelPosition=right;verticalLabelPosition=middle;" parent="Pw5SRzllFQ0d9EV75_ng-7" vertex="1" connectable="0">
          <mxGeometry x="-0.0229" relative="1" as="geometry">
            <mxPoint as="offset" />
          </mxGeometry>
        </mxCell>
        <mxCell id="bJ7v0S9oUuR_FjYUKAjI-52" value="&lt;font style=&quot;font-size: 12px;&quot;&gt;resources&lt;br&gt;&amp;nbsp;applied successfully?&lt;/font&gt;" style="rhombus;whiteSpace=wrap;html=1;aspect=fixed;strokeColor=#666666;labelPosition=center;verticalLabelPosition=middle;align=center;verticalAlign=middle;" parent="1" vertex="1">
          <mxGeometry x="305" y="1372" width="110" height="110" as="geometry" />
        </mxCell>
        <mxCell id="bJ7v0S9oUuR_FjYUKAjI-57" value="error" style="edgeStyle=orthogonalEdgeStyle;rounded=1;orthogonalLoop=1;jettySize=auto;html=1;fontSize=12;fontColor=#FF0000;endArrow=none;endFill=0;labelBackgroundColor=default;strokeColor=#666666;verticalAlign=bottom;labelPosition=right;verticalLabelPosition=middle;align=left;" parent="1" source="bJ7v0S9oUuR_FjYUKAjI-55" edge="1">
          <mxGeometry x="-0.7967" y="2" relative="1" as="geometry">
            <mxPoint x="800" y="860" as="targetPoint" />
            <mxPoint as="offset" />
          </mxGeometry>
        </mxCell>
        <mxCell id="bJ7v0S9oUuR_FjYUKAjI-55" value="throw check for module resources readiness timeout error" style="whiteSpace=wrap;html=1;rounded=1;strokeColor=#666666;" parent="1" vertex="1">
          <mxGeometry x="480" y="1397" width="120" height="60" as="geometry" />
        </mxCell>
        <mxCell id="bJ7v0S9oUuR_FjYUKAjI-58" value="set Ready state in&lt;br&gt;CR" style="whiteSpace=wrap;html=1;rounded=1;strokeColor=#666666;" parent="1" vertex="1">
          <mxGeometry x="300" y="1532" width="120" height="60" as="geometry" />
        </mxCell>
        <mxCell id="OnOha_oYimixfrr4uWvl-3" style="edgeStyle=orthogonalEdgeStyle;rounded=1;orthogonalLoop=1;jettySize=auto;html=1;exitX=0.5;exitY=1;exitDx=0;exitDy=0;entryX=0.5;entryY=0;entryDx=0;entryDy=0;strokeColor=#666666;" parent="1" source="OnOha_oYimixfrr4uWvl-1" target="bJ7v0S9oUuR_FjYUKAjI-52" edge="1">
          <mxGeometry relative="1" as="geometry" />
        </mxCell>
        <mxCell id="OnOha_oYimixfrr4uWvl-1" value="apply module resources" style="whiteSpace=wrap;html=1;rounded=1;strokeColor=#666666;" parent="1" vertex="1">
          <mxGeometry x="300" y="1255" width="120" height="60" as="geometry" />
        </mxCell>
        <mxCell id="Pw5SRzllFQ0d9EV75_ng-5" value="" style="edgeStyle=orthogonalEdgeStyle;rounded=1;orthogonalLoop=1;jettySize=auto;html=1;strokeColor=#666666;" parent="1" edge="1">
          <mxGeometry relative="1" as="geometry">
            <mxPoint x="360" y="1198" as="sourcePoint" />
            <mxPoint x="360" y="1255" as="targetPoint" />
          </mxGeometry>
        </mxCell>
        <mxCell id="DLtRC7SgaBrb14Q_dY2P-4" value="&lt;font style=&quot;font-size: 15px;&quot;&gt;&lt;b&gt;Reconcile&lt;/b&gt;&lt;/font&gt;" style="text;html=1;strokeColor=none;fillColor=none;align=center;verticalAlign=middle;whiteSpace=wrap;rounded=0;" parent="1" vertex="1">
          <mxGeometry x="480" y="255" width="60" height="30" as="geometry" />
        </mxCell>
        <mxCell id="xVS8kuLKa4usw1O9BjvL-2" value="&lt;font color=&quot;#ffffff&quot;&gt;1&lt;/font&gt;" style="ellipse;whiteSpace=wrap;html=1;aspect=fixed;fillColor=#0a6ec7;strokeColor=#0a6ec7;" parent="1" vertex="1">
          <mxGeometry x="164" y="170" width="24" height="24" as="geometry" />
        </mxCell>
        <mxCell id="xVS8kuLKa4usw1O9BjvL-3" value="&lt;font color=&quot;#ffffff&quot;&gt;2&lt;/font&gt;" style="ellipse;whiteSpace=wrap;html=1;aspect=fixed;fillColor=#0a6ec7;strokeColor=#0a6ec7;" parent="1" vertex="1">
          <mxGeometry x="318" y="258" width="24" height="24" as="geometry" />
        </mxCell>
        <mxCell id="xVS8kuLKa4usw1O9BjvL-4" value="&lt;font color=&quot;#ffffff&quot;&gt;3&lt;/font&gt;" style="ellipse;whiteSpace=wrap;html=1;aspect=fixed;fillColor=#0a6ec7;strokeColor=#0a6ec7;" parent="1" vertex="1">
          <mxGeometry x="318" y="381" width="24" height="24" as="geometry" />
        </mxCell>
        <mxCell id="xVS8kuLKa4usw1O9BjvL-5" value="&lt;font color=&quot;#ffffff&quot;&gt;3a&lt;/font&gt;" style="ellipse;whiteSpace=wrap;html=1;aspect=fixed;fillColor=#0a6ec7;strokeColor=#0a6ec7;" parent="1" vertex="1">
          <mxGeometry x="472" y="413" width="24" height="24" as="geometry" />
        </mxCell>
        <mxCell id="xVS8kuLKa4usw1O9BjvL-6" value="&lt;font color=&quot;#ffffff&quot;&gt;4&lt;/font&gt;" style="ellipse;whiteSpace=wrap;html=1;aspect=fixed;fillColor=#0a6ec7;strokeColor=#0a6ec7;" parent="1" vertex="1">
          <mxGeometry x="415" y="536" width="24" height="24" as="geometry" />
        </mxCell>
        <mxCell id="xVS8kuLKa4usw1O9BjvL-7" value="&lt;font color=&quot;#ffffff&quot;&gt;5&lt;/font&gt;" style="ellipse;whiteSpace=wrap;html=1;aspect=fixed;fillColor=#0a6ec7;strokeColor=#0a6ec7;" parent="1" vertex="1">
          <mxGeometry x="320" y="656" width="24" height="24" as="geometry" />
        </mxCell>
        <mxCell id="xVS8kuLKa4usw1O9BjvL-8" value="&lt;font color=&quot;#ffffff&quot;&gt;5a&lt;/font&gt;" style="ellipse;whiteSpace=wrap;html=1;aspect=fixed;fillColor=#0a6ec7;strokeColor=#0a6ec7;" parent="1" vertex="1">
          <mxGeometry x="439" y="680" width="24" height="24" as="geometry" />
        </mxCell>
        <mxCell id="xVS8kuLKa4usw1O9BjvL-9" value="&lt;font color=&quot;#ffffff&quot;&gt;6&lt;/font&gt;" style="ellipse;whiteSpace=wrap;html=1;aspect=fixed;fillColor=#0a6ec7;strokeColor=#0a6ec7;" parent="1" vertex="1">
          <mxGeometry x="320" y="825" width="24" height="24" as="geometry" />
        </mxCell>
        <mxCell id="xVS8kuLKa4usw1O9BjvL-10" value="&lt;font color=&quot;#ffffff&quot;&gt;6a&lt;/font&gt;" style="ellipse;whiteSpace=wrap;html=1;aspect=fixed;fillColor=#0a6ec7;strokeColor=#0a6ec7;" parent="1" vertex="1">
          <mxGeometry x="439" y="839" width="24" height="24" as="geometry" />
        </mxCell>
        <mxCell id="xVS8kuLKa4usw1O9BjvL-11" value="&lt;font color=&quot;#ffffff&quot;&gt;7&lt;/font&gt;" style="ellipse;whiteSpace=wrap;html=1;aspect=fixed;fillColor=#0a6ec7;strokeColor=#0a6ec7;" parent="1" vertex="1">
          <mxGeometry x="320" y="986" width="24" height="24" as="geometry" />
        </mxCell>
        <mxCell id="xVS8kuLKa4usw1O9BjvL-12" value="&lt;font color=&quot;#ffffff&quot;&gt;8&lt;/font&gt;" style="ellipse;whiteSpace=wrap;html=1;aspect=fixed;fillColor=#0a6ec7;strokeColor=#0a6ec7;" parent="1" vertex="1">
          <mxGeometry x="320" y="1103" width="24" height="24" as="geometry" />
        </mxCell>
        <mxCell id="xVS8kuLKa4usw1O9BjvL-13" value="&lt;font color=&quot;#ffffff&quot;&gt;9&lt;/font&gt;" style="ellipse;whiteSpace=wrap;html=1;aspect=fixed;fillColor=#0a6ec7;strokeColor=#0a6ec7;" parent="1" vertex="1">
          <mxGeometry x="320" y="1221" width="24" height="24" as="geometry" />
        </mxCell>
        <mxCell id="xVS8kuLKa4usw1O9BjvL-14" value="&lt;font color=&quot;#ffffff&quot;&gt;10&lt;/font&gt;" style="ellipse;whiteSpace=wrap;html=1;aspect=fixed;fillColor=#0a6ec7;strokeColor=#0a6ec7;" parent="1" vertex="1">
          <mxGeometry x="320" y="1348" width="24" height="24" as="geometry" />
        </mxCell>
        <mxCell id="xVS8kuLKa4usw1O9BjvL-15" value="&lt;font color=&quot;#ffffff&quot;&gt;10a&lt;/font&gt;" style="ellipse;whiteSpace=wrap;html=1;aspect=fixed;fillColor=#0a6ec7;strokeColor=#0a6ec7;" parent="1" vertex="1">
          <mxGeometry x="435" y="1348" width="24" height="24" as="geometry" />
        </mxCell>
        <mxCell id="xVS8kuLKa4usw1O9BjvL-16" value="&lt;font color=&quot;#ffffff&quot;&gt;11&lt;/font&gt;" style="ellipse;whiteSpace=wrap;html=1;aspect=fixed;fillColor=#0a6ec7;strokeColor=#0a6ec7;" parent="1" vertex="1">
          <mxGeometry x="320" y="1490" width="24" height="24" as="geometry" />
        </mxCell>
      </root>
    </mxGraphModel>
  </diagram>
</mxfile>
